<?xml version="1.0" encoding="UTF-8"?>
<svg xmlns="http://www.w3.org/2000/svg" xmlns:xlink="http://www.w3.org/1999/xlink" width="500.352" height="139.94" viewBox="170.699 227.508 500.352 139.94">
<path fill-rule="nonzero" fill="rgb(0%, 74.510193%, 82.35321%)" fill-opacity="1" d="M 304.226562 243.472656 L 304.226562 233.746094 L 341.929688 233.746094 L 341.929688 243.472656 Z M 304.226562 243.472656 "/>
<path fill-rule="nonzero" fill="rgb(45.489502%, 27.058411%, 60.784912%)" fill-opacity="1" d="M 304.226562 264.585938 L 304.226562 254.859375 L 341.929688 254.859375 L 341.929688 264.585938 L 313.953125 264.585938 L 313.953125 276.425781 L 342.304688 276.425781 L 342.304688 286.152344 L 304.226562 286.152344 Z M 304.226562 264.585938 "/>
<path fill-rule="nonzero" fill="rgb(96.471%, 96.863%, 97.255%)" fill-opacity="1" d="M 346.125 286.152344 L 363.84375 259.308594 L 347.105469 233.746094 L 360.300781 233.746094 L 361.359375 235.289062 L 361.304688 235.328125 L 383.179688 266.925781 L 395.816406 286.152344 L 382.546875 286.152344 L 370.554688 267.300781 L 358.867188 286.152344 Z M 375.058594 245.761719 L 382.46875 233.746094 L 395.289062 233.746094 L 381.378906 254.890625 Z M 375.058594 245.761719 "/>
<path fill-rule="nonzero" fill="rgb(96.471%, 96.863%, 97.255%)" fill-opacity="1" d="M 400.894531 286.152344 L 400.894531 233.746094 L 423.0625 233.746094 C 428.792969 233.746094 433.457031 235.28125 437.050781 238.347656 C 440.644531 241.414062 442.441406 245.585938 442.441406 250.863281 C 442.441406 256.140625 440.644531 260.3125 437.050781 263.378906 C 433.457031 266.445312 428.792969 267.980469 423.0625 267.980469 L 412.128906 267.980469 L 412.128906 286.152344 Z M 412.128906 258.328125 L 421.855469 258.328125 C 424.722656 258.328125 426.910156 257.675781 428.417969 256.367188 C 429.925781 255.0625 430.679688 253.226562 430.679688 250.863281 C 430.679688 248.5 429.914062 246.679688 428.378906 245.398438 C 426.847656 244.117188 424.621094 243.476562 421.707031 243.476562 L 412.128906 243.476562 Z M 412.128906 258.328125 "/>
<path fill-rule="nonzero" fill="rgb(96.471%, 96.863%, 97.255%)" fill-opacity="1" d="M 493.414062 279.515625 C 488.335938 284.644531 481.902344 287.207031 474.113281 287.207031 C 466.320312 287.207031 459.886719 284.644531 454.808594 279.515625 C 449.730469 274.390625 447.191406 267.878906 447.191406 259.988281 C 447.191406 252.09375 449.730469 245.574219 454.808594 240.421875 C 459.886719 235.269531 466.320312 232.691406 474.113281 232.691406 C 481.902344 232.691406 488.335938 235.269531 493.414062 240.421875 C 498.492188 245.574219 501.03125 252.09375 501.03125 259.988281 C 501.03125 267.878906 498.492188 274.390625 493.414062 279.515625 Z M 474.113281 276.953125 C 478.585938 276.953125 482.230469 275.394531 485.042969 272.277344 C 487.859375 269.160156 489.265625 265.066406 489.265625 259.988281 C 489.265625 254.910156 487.859375 250.800781 485.042969 247.660156 C 482.230469 244.519531 478.585938 242.945312 474.113281 242.945312 C 469.6875 242.945312 466.070312 244.519531 463.253906 247.660156 C 460.4375 250.800781 459.03125 254.910156 459.03125 259.988281 C 459.03125 265.066406 460.4375 269.160156 463.253906 272.277344 C 466.070312 275.394531 469.6875 276.953125 474.113281 276.953125 "/>
<path fill-rule="nonzero" fill="rgb(96.471%, 96.863%, 97.255%)" fill-opacity="1" d="M 592.683594 281.515625 C 588.789062 285.308594 583.195312 287.207031 575.90625 287.207031 C 568.617188 287.207031 563.027344 285.296875 559.128906 281.476562 C 555.234375 277.65625 553.285156 272.226562 553.285156 265.191406 L 553.285156 233.746094 L 564.523438 233.746094 L 564.523438 263.910156 C 564.523438 268.132812 565.488281 271.359375 567.425781 273.597656 C 569.359375 275.835938 572.1875 276.953125 575.90625 276.953125 C 579.578125 276.953125 582.390625 275.835938 584.351562 273.597656 C 586.3125 271.359375 587.292969 268.132812 587.292969 263.910156 L 587.292969 233.746094 L 598.527344 233.746094 L 598.527344 265.191406 C 598.527344 272.277344 596.578125 277.71875 592.683594 281.515625 "/>
<path fill-rule="nonzero" fill="rgb(96.471%, 96.863%, 97.255%)" fill-opacity="1" d="M 621.980469 286.152344 L 621.980469 265.792969 L 602.902344 233.746094 L 615.796875 233.746094 L 633.257812 265.722656 L 633.214844 265.792969 L 633.214844 286.152344 Z M 630.628906 249.703125 L 639.699219 233.746094 L 652.519531 233.746094 L 636.46875 260.390625 Z M 630.628906 249.703125 "/>
<path fill-rule="evenodd" fill="rgb(45.489502%, 41.567993%, 69.020081%)" fill-opacity="1" d="M 532.976562 262.386719 L 532.976562 233.746094 L 544.480469 233.746094 L 544.480469 262.386719 Z M 532.976562 262.386719 "/>
<path fill-rule="evenodd" fill="rgb(73.725891%, 64.706421%, 81.176758%)" fill-opacity="1" d="M 524.558594 288.5 C 518.429688 288.5 513.679688 286.816406 510.308594 283.441406 C 506.9375 280.070312 505.25 275.578125 505.25 269.964844 C 505.25 269.253906 505.28125 268.519531 505.34375 267.761719 L 516.894531 267.761719 C 516.855469 268.296875 516.835938 268.824219 516.835938 269.347656 C 516.835938 272.128906 517.492188 274.304688 518.804688 275.875 C 520.117188 277.445312 522.0625 278.230469 524.632812 278.230469 C 529.9375 278.230469 532.710938 274.738281 532.957031 267.761719 L 544.480469 267.761719 L 544.480469 269.347656 C 544.480469 275.421875 542.730469 280.132812 539.230469 283.480469 C 535.730469 286.828125 530.839844 288.5 524.558594 288.5 "/>
<path fill-rule="evenodd" fill="rgb(45.489502%, 41.567993%, 69.020081%)" fill-opacity="1" d="M 254.304688 300.972656 L 254.304688 233.746094 L 281.3125 233.746094 L 281.3125 300.972656 Z M 254.304688 300.972656 "/>
<path fill-rule="evenodd" fill="rgb(73.725891%, 64.706421%, 81.176758%)" fill-opacity="1" d="M 234.546875 362.265625 C 220.167969 362.265625 209.019531 358.304688 201.101562 350.390625 C 193.1875 342.476562 189.230469 331.929688 189.230469 318.761719 C 189.230469 317.085938 189.304688 315.363281 189.449219 313.582031 L 216.5625 313.582031 C 216.464844 314.839844 216.417969 316.082031 216.417969 317.308594 C 216.417969 323.835938 217.960938 328.941406 221.042969 332.628906 C 224.125 336.3125 228.6875 338.15625 234.726562 338.15625 C 247.175781 338.15625 253.6875 329.964844 254.261719 313.582031 L 281.3125 313.582031 L 281.3125 317.308594 C 281.3125 331.570312 277.203125 342.625 268.988281 350.480469 C 260.769531 358.335938 249.289062 362.265625 234.546875 362.265625 "/>
<path fill-rule="evenodd" fill="rgb(45.489502%, 27.058411%, 60.784912%)" fill-opacity="1" d="M 189.449219 300.972656 L 234.726562 300.972656 L 234.726562 273.964844 L 189.449219 273.964844 Z M 189.449219 300.972656 "/>
<path fill-rule="evenodd" fill="rgb(0%, 74.510193%, 82.35321%)" fill-opacity="1" d="M 189.449219 260.753906 L 234.726562 260.753906 L 234.726562 233.746094 L 189.449219 233.746094 Z M 189.449219 260.753906 "/>
<path fill-rule="nonzero" fill="rgb(96.471%, 96.863%, 97.255%)" fill-opacity="1" d="M 315.066406 329.640625 C 312.5 329.640625 310.402344 328.785156 308.773438 327.078125 C 307.140625 325.371094 306.324219 323.15625 306.324219 320.441406 C 306.324219 317.773438 307.164062 315.566406 308.835938 313.828125 C 310.507812 312.085938 312.636719 311.214844 315.21875 311.214844 C 317.375 311.214844 319.152344 311.820312 320.546875 313.035156 C 321.9375 314.25 322.882812 315.980469 323.375 318.222656 L 319.628906 319.191406 C 318.914062 316.183594 317.394531 314.679688 315.066406 314.679688 C 313.671875 314.679688 312.53125 315.214844 311.640625 316.285156 C 310.746094 317.355469 310.300781 318.742188 310.300781 320.441406 C 310.300781 322.136719 310.75 323.519531 311.652344 324.582031 C 312.550781 325.644531 313.714844 326.171875 315.144531 326.171875 C 317.4375 326.171875 318.914062 324.957031 319.578125 322.53125 L 323.5 323.167969 C 322.378906 327.480469 319.570312 329.640625 315.066406 329.640625 Z M 454.179688 321.988281 L 454.179688 325.839844 L 456.753906 325.839844 L 456.753906 325.816406 L 456.957031 325.816406 C 458.554688 325.816406 459.890625 325.378906 460.960938 324.503906 C 462.027344 323.628906 462.5625 322.265625 462.5625 320.414062 C 462.5625 318.578125 462.027344 317.226562 460.960938 316.351562 C 459.890625 315.476562 458.554688 315.039062 456.957031 315.039062 L 454.179688 315.039062 Z M 450.382812 325.839844 L 450.382812 311.570312 L 457.367188 311.570312 C 458.980469 311.570312 460.464844 311.898438 461.824219 312.550781 C 463.183594 313.207031 464.304688 314.222656 465.1875 315.597656 C 466.074219 316.972656 466.515625 318.589844 466.515625 320.441406 C 466.515625 322.292969 466.074219 323.902344 465.1875 325.269531 C 464.304688 326.636719 463.183594 327.648438 461.824219 328.300781 C 460.464844 328.957031 458.980469 329.28125 457.367188 329.28125 L 450.382812 329.28125 Z M 340.753906 327.039062 C 339.039062 328.773438 336.863281 329.640625 334.230469 329.640625 C 331.597656 329.640625 329.421875 328.773438 327.707031 327.039062 C 325.992188 325.308594 325.132812 323.105469 325.132812 320.441406 C 325.132812 317.773438 325.992188 315.566406 327.707031 313.828125 C 329.421875 312.085938 331.597656 311.214844 334.230469 311.214844 C 336.863281 311.214844 339.039062 312.085938 340.753906 313.828125 C 342.46875 315.566406 343.328125 317.773438 343.328125 320.441406 C 343.328125 323.105469 342.46875 325.308594 340.753906 327.039062 Z M 334.230469 326.171875 C 335.742188 326.171875 336.972656 325.648438 337.925781 324.59375 C 338.875 323.539062 339.351562 322.15625 339.351562 320.441406 C 339.351562 318.722656 338.875 317.335938 337.925781 316.273438 C 336.972656 315.210938 335.742188 314.679688 334.230469 314.679688 C 332.734375 314.679688 331.511719 315.210938 330.5625 316.273438 C 329.609375 317.335938 329.132812 318.722656 329.132812 320.441406 C 329.132812 322.15625 329.609375 323.539062 330.5625 324.59375 C 331.511719 325.648438 332.734375 326.171875 334.230469 326.171875 Z M 346.183594 329.28125 L 346.183594 311.570312 L 349.980469 311.570312 L 357.957031 323.472656 L 357.957031 311.570312 L 361.625 311.570312 L 361.625 329.28125 L 357.800781 329.28125 L 349.851562 317.40625 L 349.851562 329.28125 Z M 365.34375 329.28125 L 365.34375 318.707031 L 376.457031 318.707031 L 376.457031 321.996094 L 369.140625 321.996094 L 369.140625 325.996094 L 378.214844 325.996094 L 378.214844 329.28125 Z M 365.34375 314.859375 L 365.34375 311.570312 L 378.085938 311.570312 L 378.085938 314.859375 Z M 388.839844 329.640625 C 386.277344 329.640625 384.179688 328.785156 382.546875 327.078125 C 380.914062 325.371094 380.101562 323.15625 380.101562 320.441406 C 380.101562 317.773438 380.9375 315.566406 382.609375 313.828125 C 384.285156 312.085938 386.410156 311.214844 388.992188 311.214844 C 391.152344 311.214844 392.925781 311.820312 394.320312 313.035156 C 395.714844 314.25 396.65625 315.980469 397.148438 318.222656 L 393.402344 319.191406 C 392.6875 316.183594 391.167969 314.679688 388.839844 314.679688 C 387.449219 314.679688 386.304688 315.214844 385.414062 316.285156 C 384.523438 317.355469 384.074219 318.742188 384.074219 320.441406 C 384.074219 322.136719 384.527344 323.519531 385.425781 324.582031 C 386.328125 325.644531 387.492188 326.171875 388.917969 326.171875 C 391.210938 326.171875 392.6875 324.957031 393.351562 322.53125 L 397.277344 323.167969 C 396.15625 327.480469 393.34375 329.640625 388.839844 329.640625 Z M 403.492188 329.28125 L 403.492188 317.523438 L 407.289062 317.523438 L 407.289062 329.28125 Z M 403.492188 315.039062 L 398.039062 315.039062 L 398.039062 311.570312 L 412.71875 311.570312 L 412.71875 315.039062 Z M 425.410156 329.28125 L 423.933594 325.027344 L 417.179688 325.027344 L 415.75 329.28125 L 411.777344 329.28125 L 418.097656 311.570312 L 423.066406 311.570312 L 429.386719 329.28125 Z M 418.171875 322.046875 L 422.886719 322.046875 L 420.492188 315.140625 Z M 431.21875 329.28125 L 431.21875 311.570312 L 435.015625 311.570312 L 442.992188 323.472656 L 442.992188 311.570312 L 446.664062 311.570312 L 446.664062 329.28125 L 442.839844 329.28125 L 434.890625 317.40625 L 434.890625 329.28125 Z M 484.097656 327.039062 C 482.382812 328.773438 480.207031 329.640625 477.574219 329.640625 C 474.941406 329.640625 472.765625 328.773438 471.050781 327.039062 C 469.335938 325.308594 468.476562 323.105469 468.476562 320.441406 C 468.476562 317.773438 469.335938 315.566406 471.050781 313.828125 C 472.765625 312.085938 474.941406 311.214844 477.574219 311.214844 C 480.207031 311.214844 482.382812 312.085938 484.097656 313.828125 C 485.8125 315.566406 486.671875 317.773438 486.671875 320.441406 C 486.671875 323.105469 485.8125 325.308594 484.097656 327.039062 Z M 477.574219 326.171875 C 479.085938 326.171875 480.316406 325.648438 481.269531 324.59375 C 482.222656 323.539062 482.695312 322.15625 482.695312 320.441406 C 482.695312 318.722656 482.222656 317.335938 481.269531 316.273438 C 480.316406 315.210938 479.085938 314.679688 477.574219 314.679688 C 476.078125 314.679688 474.855469 315.210938 473.90625 316.273438 C 472.953125 317.335938 472.476562 318.722656 472.476562 320.441406 C 472.476562 322.15625 472.953125 323.539062 473.90625 324.59375 C 474.855469 325.648438 476.078125 326.171875 477.574219 326.171875 "/>
<path fill-rule="nonzero" fill="rgb(96.471%, 96.863%, 97.255%)" fill-opacity="1" d="M 492.246094 329.378906 L 492.246094 322.558594 L 497.386719 322.558594 C 498.089844 322.558594 498.625 322.398438 498.996094 322.078125 C 499.363281 321.757812 499.550781 321.304688 499.550781 320.726562 C 499.550781 320.148438 499.359375 319.699219 498.984375 319.386719 C 498.609375 319.074219 498.0625 318.914062 497.347656 318.914062 L 492.246094 318.914062 L 492.246094 316.53125 L 497.679688 316.53125 C 499.085938 316.53125 500.230469 316.90625 501.113281 317.65625 C 501.992188 318.410156 502.433594 319.433594 502.433594 320.726562 C 502.433594 322.023438 501.992188 323.042969 501.113281 323.796875 C 500.230469 324.546875 499.085938 324.925781 497.679688 324.925781 L 495 324.925781 L 495 329.378906 Z M 511.957031 329.378906 L 510.882812 326.292969 L 505.984375 326.292969 L 504.949219 329.378906 L 502.0625 329.378906 L 506.648438 316.53125 L 510.253906 316.53125 L 514.839844 329.378906 Z M 506.703125 324.128906 L 510.125 324.128906 L 508.386719 319.117188 Z M 516.503906 315.53125 L 518.074219 312.851562 L 520.8125 312.851562 L 518.519531 315.53125 Z M 516.171875 329.378906 L 516.171875 316.53125 L 518.925781 316.53125 L 518.925781 329.378906 Z M 526.453125 329.640625 C 524.726562 329.640625 523.375 329.273438 522.402344 328.539062 C 521.429688 327.804688 520.941406 326.855469 520.941406 325.683594 C 520.941406 325.175781 521.027344 324.652344 521.199219 324.109375 L 523.84375 324.722656 C 523.746094 324.96875 523.695312 325.25 523.695312 325.570312 C 523.695312 326.125 523.953125 326.566406 524.464844 326.894531 C 524.976562 327.21875 525.65625 327.382812 526.507812 327.382812 C 527.269531 327.382812 527.875 327.238281 528.320312 326.949219 C 528.761719 326.660156 528.984375 326.261719 528.984375 325.757812 C 528.984375 324.980469 528.40625 324.480469 527.246094 324.257812 L 525.546875 323.964844 C 524.054688 323.703125 522.964844 323.261719 522.28125 322.632812 C 521.597656 322.003906 521.257812 321.171875 521.257812 320.136719 C 521.257812 319.027344 521.703125 318.105469 522.597656 317.371094 C 523.492188 316.636719 524.675781 316.269531 526.15625 316.269531 C 527.84375 316.269531 529.132812 316.644531 530.019531 317.390625 C 530.90625 318.136719 531.402344 319.210938 531.5 320.617188 L 528.78125 320.949219 C 528.585938 319.335938 527.679688 318.527344 526.0625 318.527344 C 525.460938 318.527344 524.964844 318.660156 524.585938 318.925781 C 524.203125 319.191406 524.011719 319.542969 524.011719 319.988281 C 524.011719 320.777344 524.683594 321.292969 526.027344 321.539062 L 527.726562 321.835938 C 529.132812 322.082031 530.148438 322.507812 530.777344 323.113281 C 531.40625 323.714844 531.722656 324.511719 531.722656 325.496094 C 531.722656 326.742188 531.238281 327.742188 530.269531 328.503906 C 529.300781 329.261719 528.03125 329.640625 526.453125 329.640625 Z M 533.773438 329.378906 L 533.773438 321.695312 L 536.527344 321.695312 L 536.527344 321.707031 L 541.835938 321.707031 L 541.835938 324.09375 L 536.527344 324.09375 L 536.527344 326.996094 L 543.109375 326.996094 L 543.109375 329.378906 Z M 533.773438 318.914062 L 533.773438 316.53125 L 543.019531 316.53125 L 543.019531 318.914062 Z M 549.972656 329.640625 C 548.246094 329.640625 546.894531 329.273438 545.921875 328.539062 C 544.949219 327.804688 544.460938 326.855469 544.460938 325.683594 C 544.460938 325.175781 544.546875 324.652344 544.71875 324.109375 L 547.363281 324.722656 C 547.265625 324.96875 547.214844 325.25 547.214844 325.570312 C 547.214844 326.125 547.472656 326.566406 547.984375 326.894531 C 548.496094 327.21875 549.175781 327.382812 550.027344 327.382812 C 550.789062 327.382812 551.394531 327.238281 551.839844 326.949219 C 552.28125 326.660156 552.503906 326.261719 552.503906 325.757812 C 552.503906 324.980469 551.925781 324.480469 550.765625 324.257812 L 549.066406 323.964844 C 547.574219 323.703125 546.484375 323.261719 545.800781 322.632812 C 545.117188 322.003906 544.773438 321.171875 544.773438 320.136719 C 544.773438 319.027344 545.222656 318.105469 546.117188 317.371094 C 547.007812 316.636719 548.195312 316.269531 549.675781 316.269531 C 551.363281 316.269531 552.652344 316.644531 553.539062 317.390625 C 554.425781 318.136719 554.921875 319.210938 555.019531 320.617188 L 552.300781 320.949219 C 552.101562 319.335938 551.199219 318.527344 549.582031 318.527344 C 548.976562 318.527344 548.484375 318.660156 548.101562 318.925781 C 547.722656 319.191406 547.53125 319.542969 547.53125 319.988281 C 547.53125 320.777344 548.203125 321.292969 549.546875 321.539062 L 551.246094 321.835938 C 552.652344 322.082031 553.667969 322.507812 554.296875 323.113281 C 554.925781 323.714844 555.238281 324.511719 555.238281 325.496094 C 555.238281 326.742188 554.757812 327.742188 553.789062 328.503906 C 552.820312 329.261719 551.546875 329.640625 549.972656 329.640625 "/>
<path fill-rule="nonzero" fill="rgb(96.471%, 96.863%, 97.255%)" fill-opacity="1" d="M 342.472656 355.824219 C 340.613281 355.824219 339.089844 355.203125 337.90625 353.964844 C 336.722656 352.726562 336.128906 351.121094 336.128906 349.148438 C 336.128906 347.214844 336.738281 345.613281 337.953125 344.351562 C 339.167969 343.085938 340.710938 342.457031 342.582031 342.457031 C 344.148438 342.457031 345.4375 342.898438 346.449219 343.777344 C 347.460938 344.660156 348.144531 345.914062 348.5 347.539062 L 345.78125 348.242188 C 345.265625 346.0625 344.160156 344.96875 342.472656 344.96875 C 341.460938 344.96875 340.632812 345.359375 339.984375 346.136719 C 339.339844 346.910156 339.015625 347.917969 339.015625 349.148438 C 339.015625 350.382812 339.34375 351.382812 339.996094 352.152344 C 340.648438 352.925781 341.492188 353.308594 342.527344 353.308594 C 344.191406 353.308594 345.265625 352.429688 345.746094 350.664062 L 348.59375 351.128906 C 347.78125 354.257812 345.738281 355.824219 342.472656 355.824219 Z M 354.59375 348.464844 L 350.480469 348.464844 L 350.480469 355.566406 L 353.234375 355.566406 L 353.234375 350.832031 L 354.972656 350.832031 L 355.359375 351.628906 C 356.050781 353.179688 356.792969 354.238281 357.589844 354.796875 C 358.382812 355.359375 359.367188 355.640625 360.539062 355.640625 C 360.847656 355.640625 361.109375 355.601562 361.332031 355.527344 L 361.332031 352.976562 C 361.210938 353.015625 361.054688 353.03125 360.871094 353.03125 C 360.328125 353.03125 359.824219 352.855469 359.355469 352.496094 C 358.886719 352.140625 358.386719 351.453125 357.855469 350.445312 C 358.816406 350.246094 359.5625 349.832031 360.09375 349.203125 C 360.625 348.578125 360.890625 347.773438 360.890625 346.800781 C 360.890625 345.53125 360.464844 344.53125 359.613281 343.804688 C 358.761719 343.078125 357.640625 342.714844 356.25 342.714844 L 350.480469 342.714844 L 350.480469 345.101562 L 355.914062 345.101562 C 357.308594 345.101562 358.003906 345.660156 358.003906 346.78125 C 358.003906 347.90625 357.320312 348.464844 355.953125 348.464844 Z M 363.183594 355.566406 L 363.183594 347.890625 L 371.246094 347.890625 L 371.246094 350.277344 L 365.9375 350.277344 L 365.9375 353.179688 L 372.519531 353.179688 L 372.519531 355.566406 Z M 363.183594 345.101562 L 363.183594 342.714844 L 372.425781 342.714844 L 372.425781 345.101562 Z M 383.058594 355.566406 L 381.988281 352.476562 L 377.085938 352.476562 L 376.050781 355.566406 L 373.167969 355.566406 L 377.753906 342.714844 L 381.359375 342.714844 L 385.945312 355.566406 Z M 377.808594 350.3125 L 381.230469 350.3125 L 379.492188 345.304688 Z M 387.273438 355.566406 L 387.273438 342.714844 L 390.03125 342.714844 L 395.816406 351.351562 L 395.816406 342.714844 L 398.480469 342.714844 L 398.480469 355.566406 L 395.707031 355.566406 L 389.9375 346.949219 L 389.9375 355.566406 Z M 401.179688 355.566406 L 401.179688 342.714844 L 406.246094 342.714844 C 407.417969 342.714844 408.496094 342.953125 409.480469 343.425781 C 410.46875 343.902344 411.28125 344.636719 411.921875 345.636719 C 412.5625 346.636719 412.882812 347.804688 412.882812 349.148438 C 412.882812 350.492188 412.5625 351.660156 411.921875 352.652344 C 411.28125 353.644531 410.46875 354.378906 409.480469 354.855469 C 408.496094 355.328125 407.417969 355.566406 406.246094 355.566406 Z M 403.933594 353.050781 L 405.949219 353.050781 C 407.109375 353.050781 408.078125 352.734375 408.855469 352.097656 C 409.628906 351.464844 410.019531 350.472656 410.019531 349.132812 C 410.019531 347.800781 409.628906 346.816406 408.855469 346.179688 C 408.078125 345.546875 407.109375 345.230469 405.949219 345.230469 L 403.933594 345.230469 Z M 425.644531 353.9375 C 424.398438 355.195312 422.820312 355.824219 420.910156 355.824219 C 419 355.824219 417.421875 355.195312 416.175781 353.9375 C 414.929688 352.679688 414.308594 351.085938 414.308594 349.148438 C 414.308594 347.214844 414.929688 345.613281 416.175781 344.351562 C 417.421875 343.085938 419 342.457031 420.910156 342.457031 C 422.820312 342.457031 424.398438 343.085938 425.644531 344.351562 C 426.886719 345.613281 427.511719 347.214844 427.511719 349.148438 C 427.511719 351.085938 426.886719 352.679688 425.644531 353.9375 Z M 420.910156 353.308594 C 422.007812 353.308594 422.898438 352.925781 423.589844 352.164062 C 424.28125 351.398438 424.625 350.394531 424.625 349.148438 C 424.625 347.90625 424.28125 346.898438 423.589844 346.125 C 422.898438 345.355469 422.007812 344.96875 420.910156 344.96875 C 419.824219 344.96875 418.9375 345.355469 418.246094 346.125 C 417.554688 346.898438 417.210938 347.90625 417.210938 349.148438 C 417.210938 350.394531 417.554688 351.398438 418.246094 352.164062 C 418.9375 352.925781 419.824219 353.308594 420.910156 353.308594 "/>
<path fill-rule="nonzero" fill="rgb(96.471%, 96.863%, 97.255%)" fill-opacity="1" d="M 447.234375 353.234375 C 445.523438 354.960938 443.355469 355.824219 440.734375 355.824219 C 438.109375 355.824219 435.941406 354.960938 434.234375 353.234375 C 432.523438 351.507812 431.667969 349.316406 431.667969 346.660156 C 431.667969 344 432.523438 341.804688 434.234375 340.070312 C 435.941406 338.335938 438.109375 337.46875 440.734375 337.46875 C 443.355469 337.46875 445.523438 338.335938 447.234375 340.070312 C 448.941406 341.804688 449.796875 344 449.796875 346.660156 C 449.796875 349.316406 448.941406 351.507812 447.234375 353.234375 Z M 603.332031 343.097656 L 603.332031 337.824219 L 610.289062 337.824219 C 611.898438 337.824219 613.378906 338.148438 614.734375 338.800781 C 616.085938 339.453125 617.203125 340.464844 618.085938 341.835938 C 618.964844 343.207031 619.40625 344.8125 619.40625 346.660156 C 619.40625 348.503906 618.964844 350.105469 618.085938 351.46875 C 617.203125 352.832031 616.085938 353.839844 614.734375 354.492188 C 613.378906 355.144531 611.898438 355.46875 610.289062 355.46875 L 603.332031 355.46875 Z M 607.117188 348.183594 L 607.117188 352.015625 L 609.882812 352.015625 C 611.472656 352.015625 612.804688 351.578125 613.871094 350.707031 C 614.9375 349.835938 615.46875 348.476562 615.46875 346.632812 C 615.46875 344.804688 614.9375 343.453125 613.871094 342.582031 C 612.804688 341.710938 611.472656 341.277344 609.882812 341.277344 L 607.117188 341.277344 Z M 570.402344 348.183594 L 570.402344 352.015625 L 573.632812 352.015625 L 573.632812 352.003906 C 575.019531 351.925781 576.195312 351.492188 577.15625 350.707031 C 578.222656 349.835938 578.753906 348.476562 578.753906 346.632812 C 578.753906 344.804688 578.222656 343.453125 577.15625 342.582031 C 576.089844 341.710938 574.761719 341.277344 573.167969 341.277344 L 570.402344 341.277344 Z M 566.617188 352.015625 L 566.617188 337.824219 L 573.574219 337.824219 C 575.183594 337.824219 576.664062 338.148438 578.019531 338.800781 C 579.371094 339.453125 580.488281 340.464844 581.371094 341.835938 C 582.25 343.207031 582.691406 344.8125 582.691406 346.660156 C 582.691406 348.503906 582.25 350.105469 581.371094 351.46875 C 580.488281 352.832031 579.371094 353.839844 578.019531 354.492188 C 576.664062 355.144531 575.183594 355.46875 573.574219 355.46875 L 566.617188 355.46875 Z M 494.175781 345.71875 L 489.203125 345.71875 L 489.203125 355.46875 L 492.984375 355.46875 L 492.984375 348.96875 L 495.371094 348.96875 L 495.90625 350.0625 C 496.855469 352.195312 497.875 353.644531 498.964844 354.414062 C 500.058594 355.1875 501.40625 355.570312 503.015625 355.570312 C 503.4375 355.570312 503.800781 355.519531 504.105469 355.417969 L 504.105469 351.914062 C 503.9375 351.964844 503.726562 351.992188 503.472656 351.992188 C 502.726562 351.992188 502.035156 351.746094 501.390625 351.253906 C 500.746094 350.761719 500.0625 349.824219 499.332031 348.4375 C 500.652344 348.164062 501.679688 347.597656 502.40625 346.734375 C 503.132812 345.871094 503.496094 344.769531 503.496094 343.433594 C 503.496094 341.691406 502.914062 340.320312 501.746094 339.320312 C 500.578125 338.320312 499.039062 337.824219 497.125 337.824219 L 489.203125 337.824219 L 489.203125 341.097656 L 496.667969 341.097656 C 498.582031 341.097656 499.535156 341.867188 499.535156 343.410156 C 499.535156 344.949219 498.597656 345.71875 496.71875 345.71875 Z M 440.734375 352.371094 C 442.238281 352.371094 443.464844 351.847656 444.414062 350.796875 C 445.363281 349.746094 445.835938 348.367188 445.835938 346.660156 C 445.835938 344.949219 445.363281 343.566406 444.414062 342.507812 C 443.464844 341.449219 442.238281 340.921875 440.734375 340.921875 C 439.242188 340.921875 438.023438 341.449219 437.078125 342.507812 C 436.128906 343.566406 435.65625 344.949219 435.65625 346.660156 C 435.65625 348.367188 436.128906 349.746094 437.078125 350.796875 C 438.023438 351.847656 439.242188 352.371094 440.734375 352.371094 Z M 452.640625 355.46875 L 452.640625 346.101562 L 459.699219 346.101562 C 460.664062 346.101562 461.398438 345.878906 461.910156 345.441406 C 462.414062 345 462.667969 344.382812 462.667969 343.585938 C 462.667969 342.789062 462.410156 342.175781 461.894531 341.746094 C 461.378906 341.3125 460.628906 341.097656 459.648438 341.097656 L 452.640625 341.097656 L 452.640625 337.824219 L 460.105469 337.824219 C 462.035156 337.824219 463.605469 338.339844 464.816406 339.371094 C 466.027344 340.402344 466.628906 341.808594 466.628906 343.585938 C 466.628906 345.363281 466.027344 346.769531 464.816406 347.800781 C 463.605469 348.832031 462.035156 349.351562 460.105469 349.351562 L 456.425781 349.351562 L 456.425781 355.46875 Z M 483.792969 353.234375 C 482.085938 354.960938 479.917969 355.824219 477.292969 355.824219 C 474.671875 355.824219 472.503906 354.960938 470.796875 353.234375 C 469.085938 351.507812 468.230469 349.316406 468.230469 346.660156 C 468.230469 344 469.085938 341.804688 470.796875 340.070312 C 472.503906 338.335938 474.671875 337.46875 477.292969 337.46875 C 479.917969 337.46875 482.085938 338.335938 483.792969 340.070312 C 485.503906 341.804688 486.359375 344 486.359375 346.660156 C 486.359375 349.316406 485.503906 351.507812 483.792969 353.234375 Z M 477.292969 352.371094 C 478.800781 352.371094 480.027344 351.847656 480.976562 350.796875 C 481.925781 349.746094 482.398438 348.367188 482.398438 346.660156 C 482.398438 344.949219 481.925781 343.566406 480.976562 342.507812 C 480.027344 341.449219 478.800781 340.921875 477.292969 340.921875 C 475.804688 340.921875 474.585938 341.449219 473.640625 342.507812 C 472.691406 343.566406 472.214844 344.949219 472.214844 346.660156 C 472.214844 348.367188 472.691406 349.746094 473.640625 350.796875 C 474.585938 351.847656 475.804688 352.371094 477.292969 352.371094 Z M 510.074219 355.46875 L 510.074219 343.730469 L 513.855469 343.730469 L 513.855469 355.46875 Z M 507.347656 341.277344 L 504.640625 341.277344 L 504.640625 337.824219 L 519.265625 337.824219 L 519.265625 341.277344 L 516.5625 341.277344 L 516.5625 341.253906 L 507.347656 341.253906 Z M 534.640625 353.90625 C 533.328125 355.1875 531.445312 355.824219 528.988281 355.824219 C 526.535156 355.824219 524.652344 355.179688 523.339844 353.894531 C 522.027344 352.609375 521.371094 350.78125 521.371094 348.410156 L 521.371094 337.824219 L 525.15625 337.824219 L 525.15625 347.980469 C 525.15625 349.402344 525.480469 350.488281 526.132812 351.242188 C 526.785156 351.996094 527.738281 352.371094 528.988281 352.371094 C 530.226562 352.371094 531.171875 351.996094 531.832031 351.242188 C 532.492188 350.488281 532.824219 349.402344 532.824219 347.980469 L 532.824219 337.824219 L 536.605469 337.824219 L 536.605469 348.410156 C 536.605469 350.796875 535.949219 352.628906 534.640625 353.90625 Z M 540.058594 355.46875 L 540.058594 337.824219 L 543.84375 337.824219 L 551.789062 349.679688 L 551.789062 337.824219 L 555.445312 337.824219 L 555.445312 355.46875 L 551.636719 355.46875 L 543.714844 343.636719 L 543.714844 355.46875 Z M 559.152344 355.46875 L 559.152344 337.824219 L 562.9375 337.824219 L 562.9375 355.46875 Z M 597.542969 355.46875 L 596.070312 351.230469 L 589.34375 351.230469 L 587.921875 355.46875 L 583.960938 355.46875 L 590.257812 337.824219 L 595.207031 337.824219 L 601.503906 355.46875 Z M 590.332031 348.257812 L 595.03125 348.257812 L 592.644531 341.378906 Z M 622.25 355.46875 L 622.25 344.933594 L 633.320312 344.933594 L 633.320312 348.207031 L 626.03125 348.207031 L 626.03125 352.195312 L 635.070312 352.195312 L 635.070312 355.46875 Z M 622.25 341.097656 L 622.25 337.824219 L 634.945312 337.824219 L 634.945312 341.097656 Z M 644.492188 355.824219 C 642.121094 355.824219 640.265625 355.320312 638.929688 354.3125 C 637.59375 353.304688 636.925781 352 636.925781 350.390625 C 636.925781 349.695312 637.042969 348.976562 637.28125 348.234375 L 640.910156 349.070312 C 640.773438 349.410156 640.707031 349.796875 640.707031 350.238281 C 640.707031 351 641.058594 351.605469 641.761719 352.054688 C 642.464844 352.503906 643.398438 352.726562 644.566406 352.726562 C 645.617188 352.726562 646.445312 352.527344 647.054688 352.128906 C 647.664062 351.734375 647.96875 351.1875 647.96875 350.492188 C 647.96875 349.425781 647.171875 348.742188 645.582031 348.4375 L 643.246094 348.03125 C 641.199219 347.675781 639.703125 347.066406 638.765625 346.203125 C 637.824219 345.339844 637.355469 344.195312 637.355469 342.773438 C 637.355469 341.25 637.96875 339.984375 639.195312 338.976562 C 640.421875 337.96875 642.050781 337.46875 644.085938 337.46875 C 646.402344 337.46875 648.171875 337.980469 649.390625 339.003906 C 650.609375 340.027344 651.285156 341.503906 651.421875 343.433594 L 647.691406 343.890625 C 647.417969 341.671875 646.175781 340.566406 643.957031 340.566406 C 643.128906 340.566406 642.449219 340.746094 641.925781 341.109375 C 641.402344 341.476562 641.140625 341.960938 641.140625 342.570312 C 641.140625 343.652344 642.0625 344.363281 643.90625 344.703125 L 646.242188 345.109375 C 648.171875 345.449219 649.570312 346.03125 650.429688 346.863281 C 651.292969 347.691406 651.726562 348.78125 651.726562 350.136719 C 651.726562 351.847656 651.0625 353.222656 649.734375 354.261719 C 648.40625 355.304688 646.65625 355.824219 644.492188 355.824219 "/>
<path fill-rule="evenodd" fill="rgb(73.33374%, 74.118042%, 75.294495%)" fill-opacity="1" d="M 651.230469 322.175781 L 561.046875 322.175781 L 561.046875 324.652344 L 651.230469 324.652344 Z M 651.230469 322.175781 "/>
<path fill-rule="evenodd" fill="rgb(73.33374%, 74.118042%, 75.294495%)" fill-opacity="1" d="M 331.433594 348.273438 L 306.324219 348.273438 L 306.324219 350.75 L 331.433594 350.75 Z M 331.433594 348.273438 "/>
<path fill-rule="evenodd" fill="rgb(73.33374%, 74.118042%, 75.294495%)" fill-opacity="1" d="M 650.421875 321.191406 C 651.578125 321.191406 652.519531 322.132812 652.519531 323.289062 C 652.519531 324.449219 651.578125 325.386719 650.421875 325.386719 C 649.261719 325.386719 648.324219 324.449219 648.324219 323.289062 C 648.324219 322.132812 649.261719 321.191406 650.421875 321.191406 "/>
<path fill-rule="evenodd" fill="rgb(73.33374%, 74.118042%, 75.294495%)" fill-opacity="1" d="M 306.324219 347.414062 C 307.484375 347.414062 308.421875 348.351562 308.421875 349.511719 C 308.421875 350.671875 307.484375 351.609375 306.324219 351.609375 C 305.167969 351.609375 304.226562 350.671875 304.226562 349.511719 C 304.226562 348.351562 305.167969 347.414062 306.324219 347.414062 "/>
</svg>
